<mxfile host="app.diagrams.net" modified="2024-04-15T16:20:29.676Z" agent="Mozilla/5.0 (Windows NT 10.0; Win64; x64) AppleWebKit/537.36 (KHTML, like Gecko) Chrome/123.0.0.0 Safari/537.36" version="24.2.2" etag="3JkfLfxv7AZs6rNrRsMo" type="github">
  <diagram name="Page-1" id="jl465JG33OSQ5x03wn__">
    <mxGraphModel>
      <root>
        <mxCell id="0" />
        <mxCell id="1" parent="0" />
      </root>
    </mxGraphModel>
  </diagram>
</mxfile>
